<svg xmlns="http://www.w3.org/2000/svg" viewBox="0 0 320 220"><rect width="320" height="220" rx="25" fill="#fffaf0"/><path d="M0 204h320" stroke="#d7cabc" stroke-width="7"/><g><path d="M139 123v60m28-60v60" stroke="#4573ac" stroke-width="18" stroke-linecap="round"/><path d="M139 182h-15m43 0h15" stroke="#6a4b3b" stroke-width="10" stroke-linecap="round"/><g transform="translate(113 44) scale(1)"> <path d="M18 20 C16 16 15 13 16 11 C17 9 19 9 20 11 C21 13 20 17 19 20 Z" fill="#5A2D0C"/> <ellipse cx="18" cy="22" rx="4" ry="2.8" fill="#D81B60"/> <ellipse cx="18" cy="22" rx="2.8" ry="1.7" fill="#FF6BAE"/> <path d="M16 25 C14 33 13 43 15 50 C16 53 19 54 20 51 C20 46 19 37 20 30 Z" fill="#5A2D0C"/> <path d="M62 20 C64 16 65 13 64 11 C63 9 61 9 60 11 C59 13 60 17 61 20 Z" fill="#5A2D0C"/> <ellipse cx="62" cy="22" rx="4" ry="2.8" fill="#D81B60"/> <ellipse cx="62" cy="22" rx="2.8" ry="1.7" fill="#FF6BAE"/> <path d="M64 25 C66 33 67 43 65 50 C64 53 61 54 60 51 C60 46 61 37 60 30 Z" fill="#5A2D0C"/> <ellipse cx="40" cy="18" rx="21" ry="13" fill="#5A2D0C"/> <ellipse cx="40" cy="33" rx="20" ry="20" fill="#F5CFA0"/> <ellipse cx="20" cy="33" rx="4.5" ry="5.5" fill="#F5CFA0"/> <ellipse cx="20" cy="33" rx="2.8" ry="3.8" fill="#E8B888"/> <ellipse cx="60" cy="33" rx="4.5" ry="5.5" fill="#F5CFA0"/> <ellipse cx="60" cy="33" rx="2.8" ry="3.8" fill="#E8B888"/> <rect x="17" y="17" width="7" height="15" rx="3.5" fill="#5A2D0C"/> <rect x="56" y="17" width="7" height="15" rx="3.5" fill="#5A2D0C"/> <ellipse cx="31" cy="28" rx="6" ry="4.8" fill="white" stroke="#2A1408" stroke-width="0.7"/> <circle cx="32" cy="28.5" r="3.2" fill="#18090A"/> <circle cx="33.6" cy="27" r="1.4" fill="white"/> <line x1="26" y1="25" x2="24" y2="21.5" stroke="#18090A" stroke-width="1.3" stroke-linecap="round"/> <line x1="28.8" y1="23.5" x2="28" y2="20" stroke="#18090A" stroke-width="1.3" stroke-linecap="round"/> <line x1="32" y1="23" x2="32" y2="19.5" stroke="#18090A" stroke-width="1.3" stroke-linecap="round"/> <line x1="35.5" y1="23.5" x2="36.5" y2="20.5" stroke="#18090A" stroke-width="1.3" stroke-linecap="round"/> <ellipse cx="49" cy="28" rx="6" ry="4.8" fill="white" stroke="#2A1408" stroke-width="0.7"/> <circle cx="50" cy="28.5" r="3.2" fill="#18090A"/> <circle cx="51.6" cy="27" r="1.4" fill="white"/> <line x1="44" y1="25" x2="42.5" y2="21.5" stroke="#18090A" stroke-width="1.3" stroke-linecap="round"/> <line x1="46.8" y1="23.5" x2="46" y2="20" stroke="#18090A" stroke-width="1.3" stroke-linecap="round"/> <line x1="50" y1="23" x2="50" y2="19.5" stroke="#18090A" stroke-width="1.3" stroke-linecap="round"/> <line x1="53.5" y1="23.5" x2="54.5" y2="20.5" stroke="#18090A" stroke-width="1.3" stroke-linecap="round"/> <path d="M26 21.5 Q31 19.5 36 21" stroke="#7A4A20" stroke-width="1.1" fill="none" stroke-linecap="round" opacity="0.7"/> <path d="M44 21 Q49 19.5 54 21.5" stroke="#7A4A20" stroke-width="1.1" fill="none" stroke-linecap="round" opacity="0.7"/> <path d="M39 31 C38 33 36.5 35 37 36 C37.5 37 39 36.5 40 36.5 C41 36.5 42.5 37 43 36 C43.5 35 42 33 41 31 Z" fill="#E8A870" opacity="0.75"/> <circle cx="37.8" cy="35.5" r="1.3" fill="#C87840" opacity="0.55"/> <circle cx="42.2" cy="35.5" r="1.3" fill="#C87840" opacity="0.55"/> <path d="M33 41 Q40 48 47 41" fill="white" stroke="#2A1408" stroke-width="1.5" stroke-linecap="round" stroke-linejoin="round"/> <path d="M33 41 Q40 44 47 41" fill="#F5CFA0"/> <ellipse cx="23" cy="36" rx="6.5" ry="4.5" fill="#F09080" opacity="0.3"/> <ellipse cx="57" cy="36" rx="6.5" ry="4.5" fill="#F09080" opacity="0.3"/> <circle cx="20.5" cy="35" r="1.3" fill="#FFD700"/> <rect x="35" y="52" width="10" height="9" rx="4.5" fill="#F5CFA0"/> <path d="M16 60 L12 80 L68 80 L64 60 L53 56 Q40 52 27 56 Z" fill="#E24440"/> <circle cx="29" cy="67" r="3" fill="#FF8C00" opacity="0.85"/> <circle cx="29" cy="67" r="1.7" fill="#FFF176"/> <circle cx="51" cy="69" r="2.7" fill="#E2185A" opacity="0.85"/> <circle cx="51" cy="69" r="1.4" fill="#FFF176"/> <circle cx="40" cy="72" r="2.4" fill="#78C800" opacity="0.85"/> <circle cx="40" cy="72" r="1.1" fill="#FFF176"/> </g><path d="M128 102l-17-33m62 33 19-28" stroke="#ffcea6" stroke-width="10" stroke-linecap="round"/></g><rect x="127" y="130" width="64" height="47" rx="7" fill="#82bedc"/><path d="M159 130v47m-32-31h64" stroke="#ffe16e" stroke-width="9"/><path d="M157 121q-30-18-19-28 13-10 19 17 7-29 20-17 10 14-20 28" stroke="#e7b837" stroke-width="5" fill="none"/><path d="M230 57c-25-34-54 9 0 34 54-25 25-68 0-34Z" fill="#ec88a9"/></svg>