<svg xmlns="http://www.w3.org/2000/svg" viewBox="0 0 256 220"><rect width="256" height="220" rx="24" fill="#fffdf6"/><path d="M38 180a90 90 0 0 1 180 0" fill="none" stroke="#ed635d" stroke-width="11"/><path d="M48 180a80 80 0 0 1 160 0" fill="none" stroke="#f69b47" stroke-width="11"/><path d="M58 180a70 70 0 0 1 140 0" fill="none" stroke="#f5d44f" stroke-width="11"/><path d="M68 180a60 60 0 0 1 120 0" fill="none" stroke="#8dbe6a" stroke-width="11"/><path d="M78 180a50 50 0 0 1 100 0" fill="none" stroke="#58b3d5" stroke-width="11"/><path d="M88 180a40 40 0 0 1 80 0" fill="none" stroke="#7977c1" stroke-width="11"/><path d="M98 180a30 30 0 0 1 60 0" fill="none" stroke="#b68acb" stroke-width="11"/><path d="M28 187h202" stroke="#99be81" stroke-width="7" stroke-linecap="round"/></svg>